<svg xmlns="http://www.w3.org/2000/svg" xml:space="preserve" xmlns:xlink="http://www.w3.org/1999/xlink"
  style="max-width: 100%;height: auto;" width="300px" height="300px" viewBox="0 0 990 990">
  <rect width="990" height="990" fill="#ffffff" x="0" y="0"></rect>
  <g fill="#000000">
    <g transform="translate(220,44) scale(3.7766666666667)">
      <circle cx="3" cy="3" r="3"></circle>
    </g>
    <g transform="translate(308,44) scale(3.7766666666667)">
      <circle cx="3" cy="3" r="3"></circle>
    </g>
    <g transform="translate(330,44) scale(3.7766666666667)">
      <circle cx="3" cy="3" r="3"></circle>
    </g>
    <g transform="translate(352,44) scale(3.7766666666667)">
      <circle cx="3" cy="3" r="3"></circle>
    </g>
    <g transform="translate(374,44) scale(3.7766666666667)">
      <circle cx="3" cy="3" r="3"></circle>
    </g>
    <g transform="translate(396,44) scale(3.7766666666667)">
      <circle cx="3" cy="3" r="3"></circle>
    </g>
    <g transform="translate(462,44) scale(3.7766666666667)">
      <circle cx="3" cy="3" r="3"></circle>
    </g>
    <g transform="translate(484,44) scale(3.7766666666667)">
      <circle cx="3" cy="3" r="3"></circle>
    </g>
    <g transform="translate(506,44) scale(3.7766666666667)">
      <circle cx="3" cy="3" r="3"></circle>
    </g>
    <g transform="translate(528,44) scale(3.7766666666667)">
      <circle cx="3" cy="3" r="3"></circle>
    </g>
    <g transform="translate(550,44) scale(3.7766666666667)">
      <circle cx="3" cy="3" r="3"></circle>
    </g>
    <g transform="translate(594,44) scale(3.7766666666667)">
      <circle cx="3" cy="3" r="3"></circle>
    </g>
    <g transform="translate(660,44) scale(3.7766666666667)">
      <circle cx="3" cy="3" r="3"></circle>
    </g>
    <g transform="translate(704,44) scale(3.7766666666667)">
      <circle cx="3" cy="3" r="3"></circle>
    </g>
    <g transform="translate(726,44) scale(3.7766666666667)">
      <circle cx="3" cy="3" r="3"></circle>
    </g>
    <g transform="translate(220,66) scale(3.7766666666667)">
      <circle cx="3" cy="3" r="3"></circle>
    </g>
    <g transform="translate(242,66) scale(3.7766666666667)">
      <circle cx="3" cy="3" r="3"></circle>
    </g>
    <g transform="translate(374,66) scale(3.7766666666667)">
      <circle cx="3" cy="3" r="3"></circle>
    </g>
    <g transform="translate(440,66) scale(3.7766666666667)">
      <circle cx="3" cy="3" r="3"></circle>
    </g>
    <g transform="translate(462,66) scale(3.7766666666667)">
      <circle cx="3" cy="3" r="3"></circle>
    </g>
    <g transform="translate(506,66) scale(3.7766666666667)">
      <circle cx="3" cy="3" r="3"></circle>
    </g>
    <g transform="translate(528,66) scale(3.7766666666667)">
      <circle cx="3" cy="3" r="3"></circle>
    </g>
    <g transform="translate(594,66) scale(3.7766666666667)">
      <circle cx="3" cy="3" r="3"></circle>
    </g>
    <g transform="translate(616,66) scale(3.7766666666667)">
      <circle cx="3" cy="3" r="3"></circle>
    </g>
    <g transform="translate(638,66) scale(3.7766666666667)">
      <circle cx="3" cy="3" r="3"></circle>
    </g>
    <g transform="translate(704,66) scale(3.7766666666667)">
      <circle cx="3" cy="3" r="3"></circle>
    </g>
    <g transform="translate(748,66) scale(3.7766666666667)">
      <circle cx="3" cy="3" r="3"></circle>
    </g>
    <g transform="translate(220,88) scale(3.7766666666667)">
      <circle cx="3" cy="3" r="3"></circle>
    </g>
    <g transform="translate(286,88) scale(3.7766666666667)">
      <circle cx="3" cy="3" r="3"></circle>
    </g>
    <g transform="translate(308,88) scale(3.7766666666667)">
      <circle cx="3" cy="3" r="3"></circle>
    </g>
    <g transform="translate(330,88) scale(3.7766666666667)">
      <circle cx="3" cy="3" r="3"></circle>
    </g>
    <g transform="translate(396,88) scale(3.7766666666667)">
      <circle cx="3" cy="3" r="3"></circle>
    </g>
    <g transform="translate(462,88) scale(3.7766666666667)">
      <circle cx="3" cy="3" r="3"></circle>
    </g>
    <g transform="translate(506,88) scale(3.7766666666667)">
      <circle cx="3" cy="3" r="3"></circle>
    </g>
    <g transform="translate(528,88) scale(3.7766666666667)">
      <circle cx="3" cy="3" r="3"></circle>
    </g>
    <g transform="translate(594,88) scale(3.7766666666667)">
      <circle cx="3" cy="3" r="3"></circle>
    </g>
    <g transform="translate(638,88) scale(3.7766666666667)">
      <circle cx="3" cy="3" r="3"></circle>
    </g>
    <g transform="translate(726,88) scale(3.7766666666667)">
      <circle cx="3" cy="3" r="3"></circle>
    </g>
    <g transform="translate(242,110) scale(3.7766666666667)">
      <circle cx="3" cy="3" r="3"></circle>
    </g>
    <g transform="translate(264,110) scale(3.7766666666667)">
      <circle cx="3" cy="3" r="3"></circle>
    </g>
    <g transform="translate(286,110) scale(3.7766666666667)">
      <circle cx="3" cy="3" r="3"></circle>
    </g>
    <g transform="translate(352,110) scale(3.7766666666667)">
      <circle cx="3" cy="3" r="3"></circle>
    </g>
    <g transform="translate(374,110) scale(3.7766666666667)">
      <circle cx="3" cy="3" r="3"></circle>
    </g>
    <g transform="translate(396,110) scale(3.7766666666667)">
      <circle cx="3" cy="3" r="3"></circle>
    </g>
    <g transform="translate(440,110) scale(3.7766666666667)">
      <circle cx="3" cy="3" r="3"></circle>
    </g>
    <g transform="translate(484,110) scale(3.7766666666667)">
      <circle cx="3" cy="3" r="3"></circle>
    </g>
    <g transform="translate(572,110) scale(3.7766666666667)">
      <circle cx="3" cy="3" r="3"></circle>
    </g>
    <g transform="translate(616,110) scale(3.7766666666667)">
      <circle cx="3" cy="3" r="3"></circle>
    </g>
    <g transform="translate(704,110) scale(3.7766666666667)">
      <circle cx="3" cy="3" r="3"></circle>
    </g>
    <g transform="translate(242,132) scale(3.7766666666667)">
      <circle cx="3" cy="3" r="3"></circle>
    </g>
    <g transform="translate(352,132) scale(3.7766666666667)">
      <circle cx="3" cy="3" r="3"></circle>
    </g>
    <g transform="translate(418,132) scale(3.7766666666667)">
      <circle cx="3" cy="3" r="3"></circle>
    </g>
    <g transform="translate(484,132) scale(3.7766666666667)">
      <circle cx="3" cy="3" r="3"></circle>
    </g>
    <g transform="translate(528,132) scale(3.7766666666667)">
      <circle cx="3" cy="3" r="3"></circle>
    </g>
    <g transform="translate(572,132) scale(3.7766666666667)">
      <circle cx="3" cy="3" r="3"></circle>
    </g>
    <g transform="translate(594,132) scale(3.7766666666667)">
      <circle cx="3" cy="3" r="3"></circle>
    </g>
    <g transform="translate(660,132) scale(3.7766666666667)">
      <circle cx="3" cy="3" r="3"></circle>
    </g>
    <g transform="translate(726,132) scale(3.7766666666667)">
      <circle cx="3" cy="3" r="3"></circle>
    </g>
    <g transform="translate(748,132) scale(3.7766666666667)">
      <circle cx="3" cy="3" r="3"></circle>
    </g>
    <g transform="translate(220,154) scale(3.7766666666667)">
      <circle cx="3" cy="3" r="3"></circle>
    </g>
    <g transform="translate(242,154) scale(3.7766666666667)">
      <circle cx="3" cy="3" r="3"></circle>
    </g>
    <g transform="translate(264,154) scale(3.7766666666667)">
      <circle cx="3" cy="3" r="3"></circle>
    </g>
    <g transform="translate(308,154) scale(3.7766666666667)">
      <circle cx="3" cy="3" r="3"></circle>
    </g>
    <g transform="translate(374,154) scale(3.7766666666667)">
      <circle cx="3" cy="3" r="3"></circle>
    </g>
    <g transform="translate(440,154) scale(3.7766666666667)">
      <circle cx="3" cy="3" r="3"></circle>
    </g>
    <g transform="translate(484,154) scale(3.7766666666667)">
      <circle cx="3" cy="3" r="3"></circle>
    </g>
    <g transform="translate(506,154) scale(3.7766666666667)">
      <circle cx="3" cy="3" r="3"></circle>
    </g>
    <g transform="translate(528,154) scale(3.7766666666667)">
      <circle cx="3" cy="3" r="3"></circle>
    </g>
    <g transform="translate(572,154) scale(3.7766666666667)">
      <circle cx="3" cy="3" r="3"></circle>
    </g>
    <g transform="translate(616,154) scale(3.7766666666667)">
      <circle cx="3" cy="3" r="3"></circle>
    </g>
    <g transform="translate(638,154) scale(3.7766666666667)">
      <circle cx="3" cy="3" r="3"></circle>
    </g>
    <g transform="translate(660,154) scale(3.7766666666667)">
      <circle cx="3" cy="3" r="3"></circle>
    </g>
    <g transform="translate(682,154) scale(3.7766666666667)">
      <circle cx="3" cy="3" r="3"></circle>
    </g>
    <g transform="translate(220,176) scale(3.7766666666667)">
      <circle cx="3" cy="3" r="3"></circle>
    </g>
    <g transform="translate(264,176) scale(3.7766666666667)">
      <circle cx="3" cy="3" r="3"></circle>
    </g>
    <g transform="translate(308,176) scale(3.7766666666667)">
      <circle cx="3" cy="3" r="3"></circle>
    </g>
    <g transform="translate(352,176) scale(3.7766666666667)">
      <circle cx="3" cy="3" r="3"></circle>
    </g>
    <g transform="translate(396,176) scale(3.7766666666667)">
      <circle cx="3" cy="3" r="3"></circle>
    </g>
    <g transform="translate(440,176) scale(3.7766666666667)">
      <circle cx="3" cy="3" r="3"></circle>
    </g>
    <g transform="translate(484,176) scale(3.7766666666667)">
      <circle cx="3" cy="3" r="3"></circle>
    </g>
    <g transform="translate(528,176) scale(3.7766666666667)">
      <circle cx="3" cy="3" r="3"></circle>
    </g>
    <g transform="translate(572,176) scale(3.7766666666667)">
      <circle cx="3" cy="3" r="3"></circle>
    </g>
    <g transform="translate(616,176) scale(3.7766666666667)">
      <circle cx="3" cy="3" r="3"></circle>
    </g>
    <g transform="translate(660,176) scale(3.7766666666667)">
      <circle cx="3" cy="3" r="3"></circle>
    </g>
    <g transform="translate(704,176) scale(3.7766666666667)">
      <circle cx="3" cy="3" r="3"></circle>
    </g>
    <g transform="translate(748,176) scale(3.7766666666667)">
      <circle cx="3" cy="3" r="3"></circle>
    </g>
    <g transform="translate(220,198) scale(3.7766666666667)">
      <circle cx="3" cy="3" r="3"></circle>
    </g>
    <g transform="translate(242,198) scale(3.7766666666667)">
      <circle cx="3" cy="3" r="3"></circle>
    </g>
    <g transform="translate(286,198) scale(3.7766666666667)">
      <circle cx="3" cy="3" r="3"></circle>
    </g>
    <g transform="translate(352,198) scale(3.7766666666667)">
      <circle cx="3" cy="3" r="3"></circle>
    </g>
    <g transform="translate(374,198) scale(3.7766666666667)">
      <circle cx="3" cy="3" r="3"></circle>
    </g>
    <g transform="translate(396,198) scale(3.7766666666667)">
      <circle cx="3" cy="3" r="3"></circle>
    </g>
    <g transform="translate(462,198) scale(3.7766666666667)">
      <circle cx="3" cy="3" r="3"></circle>
    </g>
    <g transform="translate(484,198) scale(3.7766666666667)">
      <circle cx="3" cy="3" r="3"></circle>
    </g>
    <g transform="translate(506,198) scale(3.7766666666667)">
      <circle cx="3" cy="3" r="3"></circle>
    </g>
    <g transform="translate(528,198) scale(3.7766666666667)">
      <circle cx="3" cy="3" r="3"></circle>
    </g>
    <g transform="translate(572,198) scale(3.7766666666667)">
      <circle cx="3" cy="3" r="3"></circle>
    </g>
    <g transform="translate(594,198) scale(3.7766666666667)">
      <circle cx="3" cy="3" r="3"></circle>
    </g>
    <g transform="translate(638,198) scale(3.7766666666667)">
      <circle cx="3" cy="3" r="3"></circle>
    </g>
    <g transform="translate(660,198) scale(3.7766666666667)">
      <circle cx="3" cy="3" r="3"></circle>
    </g>
    <g transform="translate(726,198) scale(3.7766666666667)">
      <circle cx="3" cy="3" r="3"></circle>
    </g>
    <g transform="translate(88,220) scale(3.7766666666667)">
      <circle cx="3" cy="3" r="3"></circle>
    </g>
    <g transform="translate(110,220) scale(3.7766666666667)">
      <circle cx="3" cy="3" r="3"></circle>
    </g>
    <g transform="translate(132,220) scale(3.7766666666667)">
      <circle cx="3" cy="3" r="3"></circle>
    </g>
    <g transform="translate(176,220) scale(3.7766666666667)">
      <circle cx="3" cy="3" r="3"></circle>
    </g>
    <g transform="translate(220,220) scale(3.7766666666667)">
      <circle cx="3" cy="3" r="3"></circle>
    </g>
    <g transform="translate(286,220) scale(3.7766666666667)">
      <circle cx="3" cy="3" r="3"></circle>
    </g>
    <g transform="translate(374,220) scale(3.7766666666667)">
      <circle cx="3" cy="3" r="3"></circle>
    </g>
    <g transform="translate(396,220) scale(3.7766666666667)">
      <circle cx="3" cy="3" r="3"></circle>
    </g>
    <g transform="translate(440,220) scale(3.7766666666667)">
      <circle cx="3" cy="3" r="3"></circle>
    </g>
    <g transform="translate(462,220) scale(3.7766666666667)">
      <circle cx="3" cy="3" r="3"></circle>
    </g>
    <g transform="translate(484,220) scale(3.7766666666667)">
      <circle cx="3" cy="3" r="3"></circle>
    </g>
    <g transform="translate(506,220) scale(3.7766666666667)">
      <circle cx="3" cy="3" r="3"></circle>
    </g>
    <g transform="translate(594,220) scale(3.7766666666667)">
      <circle cx="3" cy="3" r="3"></circle>
    </g>
    <g transform="translate(638,220) scale(3.7766666666667)">
      <circle cx="3" cy="3" r="3"></circle>
    </g>
    <g transform="translate(682,220) scale(3.7766666666667)">
      <circle cx="3" cy="3" r="3"></circle>
    </g>
    <g transform="translate(770,220) scale(3.7766666666667)">
      <circle cx="3" cy="3" r="3"></circle>
    </g>
    <g transform="translate(792,220) scale(3.7766666666667)">
      <circle cx="3" cy="3" r="3"></circle>
    </g>
    <g transform="translate(814,220) scale(3.7766666666667)">
      <circle cx="3" cy="3" r="3"></circle>
    </g>
    <g transform="translate(880,220) scale(3.7766666666667)">
      <circle cx="3" cy="3" r="3"></circle>
    </g>
    <g transform="translate(902,220) scale(3.7766666666667)">
      <circle cx="3" cy="3" r="3"></circle>
    </g>
    <g transform="translate(924,220) scale(3.7766666666667)">
      <circle cx="3" cy="3" r="3"></circle>
    </g>
    <g transform="translate(44,242) scale(3.7766666666667)">
      <circle cx="3" cy="3" r="3"></circle>
    </g>
    <g transform="translate(66,242) scale(3.7766666666667)">
      <circle cx="3" cy="3" r="3"></circle>
    </g>
    <g transform="translate(110,242) scale(3.7766666666667)">
      <circle cx="3" cy="3" r="3"></circle>
    </g>
    <g transform="translate(132,242) scale(3.7766666666667)">
      <circle cx="3" cy="3" r="3"></circle>
    </g>
    <g transform="translate(220,242) scale(3.7766666666667)">
      <circle cx="3" cy="3" r="3"></circle>
    </g>
    <g transform="translate(242,242) scale(3.7766666666667)">
      <circle cx="3" cy="3" r="3"></circle>
    </g>
    <g transform="translate(308,242) scale(3.7766666666667)">
      <circle cx="3" cy="3" r="3"></circle>
    </g>
    <g transform="translate(352,242) scale(3.7766666666667)">
      <circle cx="3" cy="3" r="3"></circle>
    </g>
    <g transform="translate(374,242) scale(3.7766666666667)">
      <circle cx="3" cy="3" r="3"></circle>
    </g>
    <g transform="translate(440,242) scale(3.7766666666667)">
      <circle cx="3" cy="3" r="3"></circle>
    </g>
    <g transform="translate(484,242) scale(3.7766666666667)">
      <circle cx="3" cy="3" r="3"></circle>
    </g>
    <g transform="translate(528,242) scale(3.7766666666667)">
      <circle cx="3" cy="3" r="3"></circle>
    </g>
    <g transform="translate(550,242) scale(3.7766666666667)">
      <circle cx="3" cy="3" r="3"></circle>
    </g>
    <g transform="translate(572,242) scale(3.7766666666667)">
      <circle cx="3" cy="3" r="3"></circle>
    </g>
    <g transform="translate(660,242) scale(3.7766666666667)">
      <circle cx="3" cy="3" r="3"></circle>
    </g>
    <g transform="translate(704,242) scale(3.7766666666667)">
      <circle cx="3" cy="3" r="3"></circle>
    </g>
    <g transform="translate(726,242) scale(3.7766666666667)">
      <circle cx="3" cy="3" r="3"></circle>
    </g>
    <g transform="translate(748,242) scale(3.7766666666667)">
      <circle cx="3" cy="3" r="3"></circle>
    </g>
    <g transform="translate(792,242) scale(3.7766666666667)">
      <circle cx="3" cy="3" r="3"></circle>
    </g>
    <g transform="translate(814,242) scale(3.7766666666667)">
      <circle cx="3" cy="3" r="3"></circle>
    </g>
    <g transform="translate(836,242) scale(3.7766666666667)">
      <circle cx="3" cy="3" r="3"></circle>
    </g>
    <g transform="translate(880,242) scale(3.7766666666667)">
      <circle cx="3" cy="3" r="3"></circle>
    </g>
    <g transform="translate(902,242) scale(3.7766666666667)">
      <circle cx="3" cy="3" r="3"></circle>
    </g>
    <g transform="translate(924,242) scale(3.7766666666667)">
      <circle cx="3" cy="3" r="3"></circle>
    </g>
    <g transform="translate(66,264) scale(3.7766666666667)">
      <circle cx="3" cy="3" r="3"></circle>
    </g>
    <g transform="translate(88,264) scale(3.7766666666667)">
      <circle cx="3" cy="3" r="3"></circle>
    </g>
    <g transform="translate(110,264) scale(3.7766666666667)">
      <circle cx="3" cy="3" r="3"></circle>
    </g>
    <g transform="translate(176,264) scale(3.7766666666667)">
      <circle cx="3" cy="3" r="3"></circle>
    </g>
    <g transform="translate(220,264) scale(3.7766666666667)">
      <circle cx="3" cy="3" r="3"></circle>
    </g>
    <g transform="translate(242,264) scale(3.7766666666667)">
      <circle cx="3" cy="3" r="3"></circle>
    </g>
    <g transform="translate(286,264) scale(3.7766666666667)">
      <circle cx="3" cy="3" r="3"></circle>
    </g>
    <g transform="translate(308,264) scale(3.7766666666667)">
      <circle cx="3" cy="3" r="3"></circle>
    </g>
    <g transform="translate(330,264) scale(3.7766666666667)">
      <circle cx="3" cy="3" r="3"></circle>
    </g>
    <g transform="translate(396,264) scale(3.7766666666667)">
      <circle cx="3" cy="3" r="3"></circle>
    </g>
    <g transform="translate(440,264) scale(3.7766666666667)">
      <circle cx="3" cy="3" r="3"></circle>
    </g>
    <g transform="translate(462,264) scale(3.7766666666667)">
      <circle cx="3" cy="3" r="3"></circle>
    </g>
    <g transform="translate(506,264) scale(3.7766666666667)">
      <circle cx="3" cy="3" r="3"></circle>
    </g>
    <g transform="translate(594,264) scale(3.7766666666667)">
      <circle cx="3" cy="3" r="3"></circle>
    </g>
    <g transform="translate(616,264) scale(3.7766666666667)">
      <circle cx="3" cy="3" r="3"></circle>
    </g>
    <g transform="translate(638,264) scale(3.7766666666667)">
      <circle cx="3" cy="3" r="3"></circle>
    </g>
    <g transform="translate(660,264) scale(3.7766666666667)">
      <circle cx="3" cy="3" r="3"></circle>
    </g>
    <g transform="translate(748,264) scale(3.7766666666667)">
      <circle cx="3" cy="3" r="3"></circle>
    </g>
    <g transform="translate(770,264) scale(3.7766666666667)">
      <circle cx="3" cy="3" r="3"></circle>
    </g>
    <g transform="translate(814,264) scale(3.7766666666667)">
      <circle cx="3" cy="3" r="3"></circle>
    </g>
    <g transform="translate(836,264) scale(3.7766666666667)">
      <circle cx="3" cy="3" r="3"></circle>
    </g>
    <g transform="translate(66,286) scale(3.7766666666667)">
      <circle cx="3" cy="3" r="3"></circle>
    </g>
    <g transform="translate(88,286) scale(3.7766666666667)">
      <circle cx="3" cy="3" r="3"></circle>
    </g>
    <g transform="translate(220,286) scale(3.7766666666667)">
      <circle cx="3" cy="3" r="3"></circle>
    </g>
    <g transform="translate(242,286) scale(3.7766666666667)">
      <circle cx="3" cy="3" r="3"></circle>
    </g>
    <g transform="translate(286,286) scale(3.7766666666667)">
      <circle cx="3" cy="3" r="3"></circle>
    </g>
    <g transform="translate(308,286) scale(3.7766666666667)">
      <circle cx="3" cy="3" r="3"></circle>
    </g>
    <g transform="translate(330,286) scale(3.7766666666667)">
      <circle cx="3" cy="3" r="3"></circle>
    </g>
    <g transform="translate(352,286) scale(3.7766666666667)">
      <circle cx="3" cy="3" r="3"></circle>
    </g>
    <g transform="translate(418,286) scale(3.7766666666667)">
      <circle cx="3" cy="3" r="3"></circle>
    </g>
    <g transform="translate(440,286) scale(3.7766666666667)">
      <circle cx="3" cy="3" r="3"></circle>
    </g>
    <g transform="translate(484,286) scale(3.7766666666667)">
      <circle cx="3" cy="3" r="3"></circle>
    </g>
    <g transform="translate(506,286) scale(3.7766666666667)">
      <circle cx="3" cy="3" r="3"></circle>
    </g>
    <g transform="translate(550,286) scale(3.7766666666667)">
      <circle cx="3" cy="3" r="3"></circle>
    </g>
    <g transform="translate(594,286) scale(3.7766666666667)">
      <circle cx="3" cy="3" r="3"></circle>
    </g>
    <g transform="translate(616,286) scale(3.7766666666667)">
      <circle cx="3" cy="3" r="3"></circle>
    </g>
    <g transform="translate(638,286) scale(3.7766666666667)">
      <circle cx="3" cy="3" r="3"></circle>
    </g>
    <g transform="translate(660,286) scale(3.7766666666667)">
      <circle cx="3" cy="3" r="3"></circle>
    </g>
    <g transform="translate(726,286) scale(3.7766666666667)">
      <circle cx="3" cy="3" r="3"></circle>
    </g>
    <g transform="translate(748,286) scale(3.7766666666667)">
      <circle cx="3" cy="3" r="3"></circle>
    </g>
    <g transform="translate(814,286) scale(3.7766666666667)">
      <circle cx="3" cy="3" r="3"></circle>
    </g>
    <g transform="translate(836,286) scale(3.7766666666667)">
      <circle cx="3" cy="3" r="3"></circle>
    </g>
    <g transform="translate(858,286) scale(3.7766666666667)">
      <circle cx="3" cy="3" r="3"></circle>
    </g>
    <g transform="translate(902,286) scale(3.7766666666667)">
      <circle cx="3" cy="3" r="3"></circle>
    </g>
    <g transform="translate(924,286) scale(3.7766666666667)">
      <circle cx="3" cy="3" r="3"></circle>
    </g>
    <g transform="translate(44,308) scale(3.7766666666667)">
      <circle cx="3" cy="3" r="3"></circle>
    </g>
    <g transform="translate(154,308) scale(3.7766666666667)">
      <circle cx="3" cy="3" r="3"></circle>
    </g>
    <g transform="translate(176,308) scale(3.7766666666667)">
      <circle cx="3" cy="3" r="3"></circle>
    </g>
    <g transform="translate(264,308) scale(3.7766666666667)">
      <circle cx="3" cy="3" r="3"></circle>
    </g>
    <g transform="translate(286,308) scale(3.7766666666667)">
      <circle cx="3" cy="3" r="3"></circle>
    </g>
    <g transform="translate(330,308) scale(3.7766666666667)">
      <circle cx="3" cy="3" r="3"></circle>
    </g>
    <g transform="translate(374,308) scale(3.7766666666667)">
      <circle cx="3" cy="3" r="3"></circle>
    </g>
    <g transform="translate(396,308) scale(3.7766666666667)">
      <circle cx="3" cy="3" r="3"></circle>
    </g>
    <g transform="translate(440,308) scale(3.7766666666667)">
      <circle cx="3" cy="3" r="3"></circle>
    </g>
    <g transform="translate(484,308) scale(3.7766666666667)">
      <circle cx="3" cy="3" r="3"></circle>
    </g>
    <g transform="translate(506,308) scale(3.7766666666667)">
      <circle cx="3" cy="3" r="3"></circle>
    </g>
    <g transform="translate(528,308) scale(3.7766666666667)">
      <circle cx="3" cy="3" r="3"></circle>
    </g>
    <g transform="translate(550,308) scale(3.7766666666667)">
      <circle cx="3" cy="3" r="3"></circle>
    </g>
    <g transform="translate(616,308) scale(3.7766666666667)">
      <circle cx="3" cy="3" r="3"></circle>
    </g>
    <g transform="translate(638,308) scale(3.7766666666667)">
      <circle cx="3" cy="3" r="3"></circle>
    </g>
    <g transform="translate(660,308) scale(3.7766666666667)">
      <circle cx="3" cy="3" r="3"></circle>
    </g>
    <g transform="translate(682,308) scale(3.7766666666667)">
      <circle cx="3" cy="3" r="3"></circle>
    </g>
    <g transform="translate(726,308) scale(3.7766666666667)">
      <circle cx="3" cy="3" r="3"></circle>
    </g>
    <g transform="translate(858,308) scale(3.7766666666667)">
      <circle cx="3" cy="3" r="3"></circle>
    </g>
    <g transform="translate(880,308) scale(3.7766666666667)">
      <circle cx="3" cy="3" r="3"></circle>
    </g>
    <g transform="translate(924,308) scale(3.7766666666667)">
      <circle cx="3" cy="3" r="3"></circle>
    </g>
    <g transform="translate(44,330) scale(3.7766666666667)">
      <circle cx="3" cy="3" r="3"></circle>
    </g>
    <g transform="translate(66,330) scale(3.7766666666667)">
      <circle cx="3" cy="3" r="3"></circle>
    </g>
    <g transform="translate(88,330) scale(3.7766666666667)">
      <circle cx="3" cy="3" r="3"></circle>
    </g>
    <g transform="translate(132,330) scale(3.7766666666667)">
      <circle cx="3" cy="3" r="3"></circle>
    </g>
    <g transform="translate(198,330) scale(3.7766666666667)">
      <circle cx="3" cy="3" r="3"></circle>
    </g>
    <g transform="translate(264,330) scale(3.7766666666667)">
      <circle cx="3" cy="3" r="3"></circle>
    </g>
    <g transform="translate(286,330) scale(3.7766666666667)">
      <circle cx="3" cy="3" r="3"></circle>
    </g>
    <g transform="translate(330,330) scale(3.7766666666667)">
      <circle cx="3" cy="3" r="3"></circle>
    </g>
    <g transform="translate(374,330) scale(3.7766666666667)">
      <circle cx="3" cy="3" r="3"></circle>
    </g>
    <g transform="translate(396,330) scale(3.7766666666667)">
      <circle cx="3" cy="3" r="3"></circle>
    </g>
    <g transform="translate(418,330) scale(3.7766666666667)">
      <circle cx="3" cy="3" r="3"></circle>
    </g>
    <g transform="translate(440,330) scale(3.7766666666667)">
      <circle cx="3" cy="3" r="3"></circle>
    </g>
    <g transform="translate(462,330) scale(3.7766666666667)">
      <circle cx="3" cy="3" r="3"></circle>
    </g>
    <g transform="translate(484,330) scale(3.7766666666667)">
      <circle cx="3" cy="3" r="3"></circle>
    </g>
    <g transform="translate(594,330) scale(3.7766666666667)">
      <circle cx="3" cy="3" r="3"></circle>
    </g>
    <g transform="translate(638,330) scale(3.7766666666667)">
      <circle cx="3" cy="3" r="3"></circle>
    </g>
    <g transform="translate(682,330) scale(3.7766666666667)">
      <circle cx="3" cy="3" r="3"></circle>
    </g>
    <g transform="translate(748,330) scale(3.7766666666667)">
      <circle cx="3" cy="3" r="3"></circle>
    </g>
    <g transform="translate(770,330) scale(3.7766666666667)">
      <circle cx="3" cy="3" r="3"></circle>
    </g>
    <g transform="translate(792,330) scale(3.7766666666667)">
      <circle cx="3" cy="3" r="3"></circle>
    </g>
    <g transform="translate(814,330) scale(3.7766666666667)">
      <circle cx="3" cy="3" r="3"></circle>
    </g>
    <g transform="translate(836,330) scale(3.7766666666667)">
      <circle cx="3" cy="3" r="3"></circle>
    </g>
    <g transform="translate(902,330) scale(3.7766666666667)">
      <circle cx="3" cy="3" r="3"></circle>
    </g>
    <g transform="translate(924,330) scale(3.7766666666667)">
      <circle cx="3" cy="3" r="3"></circle>
    </g>
    <g transform="translate(44,352) scale(3.7766666666667)">
      <circle cx="3" cy="3" r="3"></circle>
    </g>
    <g transform="translate(66,352) scale(3.7766666666667)">
      <circle cx="3" cy="3" r="3"></circle>
    </g>
    <g transform="translate(110,352) scale(3.7766666666667)">
      <circle cx="3" cy="3" r="3"></circle>
    </g>
    <g transform="translate(132,352) scale(3.7766666666667)">
      <circle cx="3" cy="3" r="3"></circle>
    </g>
    <g transform="translate(176,352) scale(3.7766666666667)">
      <circle cx="3" cy="3" r="3"></circle>
    </g>
    <g transform="translate(198,352) scale(3.7766666666667)">
      <circle cx="3" cy="3" r="3"></circle>
    </g>
    <g transform="translate(242,352) scale(3.7766666666667)">
      <circle cx="3" cy="3" r="3"></circle>
    </g>
    <g transform="translate(264,352) scale(3.7766666666667)">
      <circle cx="3" cy="3" r="3"></circle>
    </g>
    <g transform="translate(330,352) scale(3.7766666666667)">
      <circle cx="3" cy="3" r="3"></circle>
    </g>
    <g transform="translate(352,352) scale(3.7766666666667)">
      <circle cx="3" cy="3" r="3"></circle>
    </g>
    <g transform="translate(396,352) scale(3.7766666666667)">
      <circle cx="3" cy="3" r="3"></circle>
    </g>
    <g transform="translate(506,352) scale(3.7766666666667)">
      <circle cx="3" cy="3" r="3"></circle>
    </g>
    <g transform="translate(528,352) scale(3.7766666666667)">
      <circle cx="3" cy="3" r="3"></circle>
    </g>
    <g transform="translate(550,352) scale(3.7766666666667)">
      <circle cx="3" cy="3" r="3"></circle>
    </g>
    <g transform="translate(572,352) scale(3.7766666666667)">
      <circle cx="3" cy="3" r="3"></circle>
    </g>
    <g transform="translate(594,352) scale(3.7766666666667)">
      <circle cx="3" cy="3" r="3"></circle>
    </g>
    <g transform="translate(616,352) scale(3.7766666666667)">
      <circle cx="3" cy="3" r="3"></circle>
    </g>
    <g transform="translate(638,352) scale(3.7766666666667)">
      <circle cx="3" cy="3" r="3"></circle>
    </g>
    <g transform="translate(660,352) scale(3.7766666666667)">
      <circle cx="3" cy="3" r="3"></circle>
    </g>
    <g transform="translate(726,352) scale(3.7766666666667)">
      <circle cx="3" cy="3" r="3"></circle>
    </g>
    <g transform="translate(770,352) scale(3.7766666666667)">
      <circle cx="3" cy="3" r="3"></circle>
    </g>
    <g transform="translate(814,352) scale(3.7766666666667)">
      <circle cx="3" cy="3" r="3"></circle>
    </g>
    <g transform="translate(858,352) scale(3.7766666666667)">
      <circle cx="3" cy="3" r="3"></circle>
    </g>
    <g transform="translate(880,352) scale(3.7766666666667)">
      <circle cx="3" cy="3" r="3"></circle>
    </g>
    <g transform="translate(88,374) scale(3.7766666666667)">
      <circle cx="3" cy="3" r="3"></circle>
    </g>
    <g transform="translate(198,374) scale(3.7766666666667)">
      <circle cx="3" cy="3" r="3"></circle>
    </g>
    <g transform="translate(220,374) scale(3.7766666666667)">
      <circle cx="3" cy="3" r="3"></circle>
    </g>
    <g transform="translate(242,374) scale(3.7766666666667)">
      <circle cx="3" cy="3" r="3"></circle>
    </g>
    <g transform="translate(264,374) scale(3.7766666666667)">
      <circle cx="3" cy="3" r="3"></circle>
    </g>
    <g transform="translate(330,374) scale(3.7766666666667)">
      <circle cx="3" cy="3" r="3"></circle>
    </g>
    <g transform="translate(550,374) scale(3.7766666666667)">
      <circle cx="3" cy="3" r="3"></circle>
    </g>
    <g transform="translate(572,374) scale(3.7766666666667)">
      <circle cx="3" cy="3" r="3"></circle>
    </g>
    <g transform="translate(594,374) scale(3.7766666666667)">
      <circle cx="3" cy="3" r="3"></circle>
    </g>
    <g transform="translate(616,374) scale(3.7766666666667)">
      <circle cx="3" cy="3" r="3"></circle>
    </g>
    <g transform="translate(638,374) scale(3.7766666666667)">
      <circle cx="3" cy="3" r="3"></circle>
    </g>
    <g transform="translate(726,374) scale(3.7766666666667)">
      <circle cx="3" cy="3" r="3"></circle>
    </g>
    <g transform="translate(748,374) scale(3.7766666666667)">
      <circle cx="3" cy="3" r="3"></circle>
    </g>
    <g transform="translate(792,374) scale(3.7766666666667)">
      <circle cx="3" cy="3" r="3"></circle>
    </g>
    <g transform="translate(814,374) scale(3.7766666666667)">
      <circle cx="3" cy="3" r="3"></circle>
    </g>
    <g transform="translate(858,374) scale(3.7766666666667)">
      <circle cx="3" cy="3" r="3"></circle>
    </g>
    <g transform="translate(902,374) scale(3.7766666666667)">
      <circle cx="3" cy="3" r="3"></circle>
    </g>
    <g transform="translate(924,374) scale(3.7766666666667)">
      <circle cx="3" cy="3" r="3"></circle>
    </g>
    <g transform="translate(66,396) scale(3.7766666666667)">
      <circle cx="3" cy="3" r="3"></circle>
    </g>
    <g transform="translate(132,396) scale(3.7766666666667)">
      <circle cx="3" cy="3" r="3"></circle>
    </g>
    <g transform="translate(176,396) scale(3.7766666666667)">
      <circle cx="3" cy="3" r="3"></circle>
    </g>
    <g transform="translate(198,396) scale(3.7766666666667)">
      <circle cx="3" cy="3" r="3"></circle>
    </g>
    <g transform="translate(242,396) scale(3.7766666666667)">
      <circle cx="3" cy="3" r="3"></circle>
    </g>
    <g transform="translate(286,396) scale(3.7766666666667)">
      <circle cx="3" cy="3" r="3"></circle>
    </g>
    <g transform="translate(308,396) scale(3.7766666666667)">
      <circle cx="3" cy="3" r="3"></circle>
    </g>
    <g transform="translate(396,396) scale(3.7766666666667)">
      <circle cx="3" cy="3" r="3"></circle>
    </g>
    <g transform="translate(528,396) scale(3.7766666666667)">
      <circle cx="3" cy="3" r="3"></circle>
    </g>
    <g transform="translate(550,396) scale(3.7766666666667)">
      <circle cx="3" cy="3" r="3"></circle>
    </g>
    <g transform="translate(638,396) scale(3.7766666666667)">
      <circle cx="3" cy="3" r="3"></circle>
    </g>
    <g transform="translate(682,396) scale(3.7766666666667)">
      <circle cx="3" cy="3" r="3"></circle>
    </g>
    <g transform="translate(726,396) scale(3.7766666666667)">
      <circle cx="3" cy="3" r="3"></circle>
    </g>
    <g transform="translate(748,396) scale(3.7766666666667)">
      <circle cx="3" cy="3" r="3"></circle>
    </g>
    <g transform="translate(770,396) scale(3.7766666666667)">
      <circle cx="3" cy="3" r="3"></circle>
    </g>
    <g transform="translate(814,396) scale(3.7766666666667)">
      <circle cx="3" cy="3" r="3"></circle>
    </g>
    <g transform="translate(880,396) scale(3.7766666666667)">
      <circle cx="3" cy="3" r="3"></circle>
    </g>
    <g transform="translate(924,396) scale(3.7766666666667)">
      <circle cx="3" cy="3" r="3"></circle>
    </g>
    <g transform="translate(44,418) scale(3.7766666666667)">
      <circle cx="3" cy="3" r="3"></circle>
    </g>
    <g transform="translate(66,418) scale(3.7766666666667)">
      <circle cx="3" cy="3" r="3"></circle>
    </g>
    <g transform="translate(88,418) scale(3.7766666666667)">
      <circle cx="3" cy="3" r="3"></circle>
    </g>
    <g transform="translate(132,418) scale(3.7766666666667)">
      <circle cx="3" cy="3" r="3"></circle>
    </g>
    <g transform="translate(154,418) scale(3.7766666666667)">
      <circle cx="3" cy="3" r="3"></circle>
    </g>
    <g transform="translate(220,418) scale(3.7766666666667)">
      <circle cx="3" cy="3" r="3"></circle>
    </g>
    <g transform="translate(286,418) scale(3.7766666666667)">
      <circle cx="3" cy="3" r="3"></circle>
    </g>
    <g transform="translate(308,418) scale(3.7766666666667)">
      <circle cx="3" cy="3" r="3"></circle>
    </g>
    <g transform="translate(418,418) scale(3.7766666666667)">
      <circle cx="3" cy="3" r="3"></circle>
    </g>
    <g transform="translate(440,418) scale(3.7766666666667)">
      <circle cx="3" cy="3" r="3"></circle>
    </g>
    <g transform="translate(462,418) scale(3.7766666666667)">
      <circle cx="3" cy="3" r="3"></circle>
    </g>
    <g transform="translate(484,418) scale(3.7766666666667)">
      <circle cx="3" cy="3" r="3"></circle>
    </g>
    <g transform="translate(528,418) scale(3.7766666666667)">
      <circle cx="3" cy="3" r="3"></circle>
    </g>
    <g transform="translate(572,418) scale(3.7766666666667)">
      <circle cx="3" cy="3" r="3"></circle>
    </g>
    <g transform="translate(616,418) scale(3.7766666666667)">
      <circle cx="3" cy="3" r="3"></circle>
    </g>
    <g transform="translate(660,418) scale(3.7766666666667)">
      <circle cx="3" cy="3" r="3"></circle>
    </g>
    <g transform="translate(682,418) scale(3.7766666666667)">
      <circle cx="3" cy="3" r="3"></circle>
    </g>
    <g transform="translate(704,418) scale(3.7766666666667)">
      <circle cx="3" cy="3" r="3"></circle>
    </g>
    <g transform="translate(726,418) scale(3.7766666666667)">
      <circle cx="3" cy="3" r="3"></circle>
    </g>
    <g transform="translate(748,418) scale(3.7766666666667)">
      <circle cx="3" cy="3" r="3"></circle>
    </g>
    <g transform="translate(792,418) scale(3.7766666666667)">
      <circle cx="3" cy="3" r="3"></circle>
    </g>
    <g transform="translate(814,418) scale(3.7766666666667)">
      <circle cx="3" cy="3" r="3"></circle>
    </g>
    <g transform="translate(836,418) scale(3.7766666666667)">
      <circle cx="3" cy="3" r="3"></circle>
    </g>
    <g transform="translate(880,418) scale(3.7766666666667)">
      <circle cx="3" cy="3" r="3"></circle>
    </g>
    <g transform="translate(902,418) scale(3.7766666666667)">
      <circle cx="3" cy="3" r="3"></circle>
    </g>
    <g transform="translate(924,418) scale(3.7766666666667)">
      <circle cx="3" cy="3" r="3"></circle>
    </g>
    <g transform="translate(44,440) scale(3.7766666666667)">
      <circle cx="3" cy="3" r="3"></circle>
    </g>
    <g transform="translate(66,440) scale(3.7766666666667)">
      <circle cx="3" cy="3" r="3"></circle>
    </g>
    <g transform="translate(110,440) scale(3.7766666666667)">
      <circle cx="3" cy="3" r="3"></circle>
    </g>
    <g transform="translate(154,440) scale(3.7766666666667)">
      <circle cx="3" cy="3" r="3"></circle>
    </g>
    <g transform="translate(176,440) scale(3.7766666666667)">
      <circle cx="3" cy="3" r="3"></circle>
    </g>
    <g transform="translate(198,440) scale(3.7766666666667)">
      <circle cx="3" cy="3" r="3"></circle>
    </g>
    <g transform="translate(220,440) scale(3.7766666666667)">
      <circle cx="3" cy="3" r="3"></circle>
    </g>
    <g transform="translate(264,440) scale(3.7766666666667)">
      <circle cx="3" cy="3" r="3"></circle>
    </g>
    <g transform="translate(308,440) scale(3.7766666666667)">
      <circle cx="3" cy="3" r="3"></circle>
    </g>
    <g transform="translate(330,440) scale(3.7766666666667)">
      <circle cx="3" cy="3" r="3"></circle>
    </g>
    <g transform="translate(396,440) scale(3.7766666666667)">
      <circle cx="3" cy="3" r="3"></circle>
    </g>
    <g transform="translate(462,440) scale(3.7766666666667)">
      <circle cx="3" cy="3" r="3"></circle>
    </g>
    <g transform="translate(506,440) scale(3.7766666666667)">
      <circle cx="3" cy="3" r="3"></circle>
    </g>
    <g transform="translate(550,440) scale(3.7766666666667)">
      <circle cx="3" cy="3" r="3"></circle>
    </g>
    <g transform="translate(638,440) scale(3.7766666666667)">
      <circle cx="3" cy="3" r="3"></circle>
    </g>
    <g transform="translate(660,440) scale(3.7766666666667)">
      <circle cx="3" cy="3" r="3"></circle>
    </g>
    <g transform="translate(682,440) scale(3.7766666666667)">
      <circle cx="3" cy="3" r="3"></circle>
    </g>
    <g transform="translate(770,440) scale(3.7766666666667)">
      <circle cx="3" cy="3" r="3"></circle>
    </g>
    <g transform="translate(836,440) scale(3.7766666666667)">
      <circle cx="3" cy="3" r="3"></circle>
    </g>
    <g transform="translate(44,462) scale(3.7766666666667)">
      <circle cx="3" cy="3" r="3"></circle>
    </g>
    <g transform="translate(66,462) scale(3.7766666666667)">
      <circle cx="3" cy="3" r="3"></circle>
    </g>
    <g transform="translate(132,462) scale(3.7766666666667)">
      <circle cx="3" cy="3" r="3"></circle>
    </g>
    <g transform="translate(154,462) scale(3.7766666666667)">
      <circle cx="3" cy="3" r="3"></circle>
    </g>
    <g transform="translate(264,462) scale(3.7766666666667)">
      <circle cx="3" cy="3" r="3"></circle>
    </g>
    <g transform="translate(352,462) scale(3.7766666666667)">
      <circle cx="3" cy="3" r="3"></circle>
    </g>
    <g transform="translate(374,462) scale(3.7766666666667)">
      <circle cx="3" cy="3" r="3"></circle>
    </g>
    <g transform="translate(396,462) scale(3.7766666666667)">
      <circle cx="3" cy="3" r="3"></circle>
    </g>
    <g transform="translate(418,462) scale(3.7766666666667)">
      <circle cx="3" cy="3" r="3"></circle>
    </g>
    <g transform="translate(462,462) scale(3.7766666666667)">
      <circle cx="3" cy="3" r="3"></circle>
    </g>
    <g transform="translate(484,462) scale(3.7766666666667)">
      <circle cx="3" cy="3" r="3"></circle>
    </g>
    <g transform="translate(572,462) scale(3.7766666666667)">
      <circle cx="3" cy="3" r="3"></circle>
    </g>
    <g transform="translate(594,462) scale(3.7766666666667)">
      <circle cx="3" cy="3" r="3"></circle>
    </g>
    <g transform="translate(616,462) scale(3.7766666666667)">
      <circle cx="3" cy="3" r="3"></circle>
    </g>
    <g transform="translate(682,462) scale(3.7766666666667)">
      <circle cx="3" cy="3" r="3"></circle>
    </g>
    <g transform="translate(704,462) scale(3.7766666666667)">
      <circle cx="3" cy="3" r="3"></circle>
    </g>
    <g transform="translate(726,462) scale(3.7766666666667)">
      <circle cx="3" cy="3" r="3"></circle>
    </g>
    <g transform="translate(836,462) scale(3.7766666666667)">
      <circle cx="3" cy="3" r="3"></circle>
    </g>
    <g transform="translate(902,462) scale(3.7766666666667)">
      <circle cx="3" cy="3" r="3"></circle>
    </g>
    <g transform="translate(924,462) scale(3.7766666666667)">
      <circle cx="3" cy="3" r="3"></circle>
    </g>
    <g transform="translate(110,484) scale(3.7766666666667)">
      <circle cx="3" cy="3" r="3"></circle>
    </g>
    <g transform="translate(154,484) scale(3.7766666666667)">
      <circle cx="3" cy="3" r="3"></circle>
    </g>
    <g transform="translate(176,484) scale(3.7766666666667)">
      <circle cx="3" cy="3" r="3"></circle>
    </g>
    <g transform="translate(220,484) scale(3.7766666666667)">
      <circle cx="3" cy="3" r="3"></circle>
    </g>
    <g transform="translate(242,484) scale(3.7766666666667)">
      <circle cx="3" cy="3" r="3"></circle>
    </g>
    <g transform="translate(264,484) scale(3.7766666666667)">
      <circle cx="3" cy="3" r="3"></circle>
    </g>
    <g transform="translate(374,484) scale(3.7766666666667)">
      <circle cx="3" cy="3" r="3"></circle>
    </g>
    <g transform="translate(462,484) scale(3.7766666666667)">
      <circle cx="3" cy="3" r="3"></circle>
    </g>
    <g transform="translate(484,484) scale(3.7766666666667)">
      <circle cx="3" cy="3" r="3"></circle>
    </g>
    <g transform="translate(506,484) scale(3.7766666666667)">
      <circle cx="3" cy="3" r="3"></circle>
    </g>
    <g transform="translate(528,484) scale(3.7766666666667)">
      <circle cx="3" cy="3" r="3"></circle>
    </g>
    <g transform="translate(572,484) scale(3.7766666666667)">
      <circle cx="3" cy="3" r="3"></circle>
    </g>
    <g transform="translate(594,484) scale(3.7766666666667)">
      <circle cx="3" cy="3" r="3"></circle>
    </g>
    <g transform="translate(616,484) scale(3.7766666666667)">
      <circle cx="3" cy="3" r="3"></circle>
    </g>
    <g transform="translate(638,484) scale(3.7766666666667)">
      <circle cx="3" cy="3" r="3"></circle>
    </g>
    <g transform="translate(726,484) scale(3.7766666666667)">
      <circle cx="3" cy="3" r="3"></circle>
    </g>
    <g transform="translate(748,484) scale(3.7766666666667)">
      <circle cx="3" cy="3" r="3"></circle>
    </g>
    <g transform="translate(880,484) scale(3.7766666666667)">
      <circle cx="3" cy="3" r="3"></circle>
    </g>
    <g transform="translate(924,484) scale(3.7766666666667)">
      <circle cx="3" cy="3" r="3"></circle>
    </g>
    <g transform="translate(66,506) scale(3.7766666666667)">
      <circle cx="3" cy="3" r="3"></circle>
    </g>
    <g transform="translate(110,506) scale(3.7766666666667)">
      <circle cx="3" cy="3" r="3"></circle>
    </g>
    <g transform="translate(154,506) scale(3.7766666666667)">
      <circle cx="3" cy="3" r="3"></circle>
    </g>
    <g transform="translate(220,506) scale(3.7766666666667)">
      <circle cx="3" cy="3" r="3"></circle>
    </g>
    <g transform="translate(242,506) scale(3.7766666666667)">
      <circle cx="3" cy="3" r="3"></circle>
    </g>
    <g transform="translate(264,506) scale(3.7766666666667)">
      <circle cx="3" cy="3" r="3"></circle>
    </g>
    <g transform="translate(330,506) scale(3.7766666666667)">
      <circle cx="3" cy="3" r="3"></circle>
    </g>
    <g transform="translate(352,506) scale(3.7766666666667)">
      <circle cx="3" cy="3" r="3"></circle>
    </g>
    <g transform="translate(374,506) scale(3.7766666666667)">
      <circle cx="3" cy="3" r="3"></circle>
    </g>
    <g transform="translate(396,506) scale(3.7766666666667)">
      <circle cx="3" cy="3" r="3"></circle>
    </g>
    <g transform="translate(418,506) scale(3.7766666666667)">
      <circle cx="3" cy="3" r="3"></circle>
    </g>
    <g transform="translate(462,506) scale(3.7766666666667)">
      <circle cx="3" cy="3" r="3"></circle>
    </g>
    <g transform="translate(528,506) scale(3.7766666666667)">
      <circle cx="3" cy="3" r="3"></circle>
    </g>
    <g transform="translate(572,506) scale(3.7766666666667)">
      <circle cx="3" cy="3" r="3"></circle>
    </g>
    <g transform="translate(594,506) scale(3.7766666666667)">
      <circle cx="3" cy="3" r="3"></circle>
    </g>
    <g transform="translate(616,506) scale(3.7766666666667)">
      <circle cx="3" cy="3" r="3"></circle>
    </g>
    <g transform="translate(660,506) scale(3.7766666666667)">
      <circle cx="3" cy="3" r="3"></circle>
    </g>
    <g transform="translate(682,506) scale(3.7766666666667)">
      <circle cx="3" cy="3" r="3"></circle>
    </g>
    <g transform="translate(704,506) scale(3.7766666666667)">
      <circle cx="3" cy="3" r="3"></circle>
    </g>
    <g transform="translate(726,506) scale(3.7766666666667)">
      <circle cx="3" cy="3" r="3"></circle>
    </g>
    <g transform="translate(748,506) scale(3.7766666666667)">
      <circle cx="3" cy="3" r="3"></circle>
    </g>
    <g transform="translate(770,506) scale(3.7766666666667)">
      <circle cx="3" cy="3" r="3"></circle>
    </g>
    <g transform="translate(792,506) scale(3.7766666666667)">
      <circle cx="3" cy="3" r="3"></circle>
    </g>
    <g transform="translate(814,506) scale(3.7766666666667)">
      <circle cx="3" cy="3" r="3"></circle>
    </g>
    <g transform="translate(836,506) scale(3.7766666666667)">
      <circle cx="3" cy="3" r="3"></circle>
    </g>
    <g transform="translate(858,506) scale(3.7766666666667)">
      <circle cx="3" cy="3" r="3"></circle>
    </g>
    <g transform="translate(902,506) scale(3.7766666666667)">
      <circle cx="3" cy="3" r="3"></circle>
    </g>
    <g transform="translate(924,506) scale(3.7766666666667)">
      <circle cx="3" cy="3" r="3"></circle>
    </g>
    <g transform="translate(88,528) scale(3.7766666666667)">
      <circle cx="3" cy="3" r="3"></circle>
    </g>
    <g transform="translate(132,528) scale(3.7766666666667)">
      <circle cx="3" cy="3" r="3"></circle>
    </g>
    <g transform="translate(154,528) scale(3.7766666666667)">
      <circle cx="3" cy="3" r="3"></circle>
    </g>
    <g transform="translate(176,528) scale(3.7766666666667)">
      <circle cx="3" cy="3" r="3"></circle>
    </g>
    <g transform="translate(242,528) scale(3.7766666666667)">
      <circle cx="3" cy="3" r="3"></circle>
    </g>
    <g transform="translate(264,528) scale(3.7766666666667)">
      <circle cx="3" cy="3" r="3"></circle>
    </g>
    <g transform="translate(396,528) scale(3.7766666666667)">
      <circle cx="3" cy="3" r="3"></circle>
    </g>
    <g transform="translate(484,528) scale(3.7766666666667)">
      <circle cx="3" cy="3" r="3"></circle>
    </g>
    <g transform="translate(506,528) scale(3.7766666666667)">
      <circle cx="3" cy="3" r="3"></circle>
    </g>
    <g transform="translate(550,528) scale(3.7766666666667)">
      <circle cx="3" cy="3" r="3"></circle>
    </g>
    <g transform="translate(572,528) scale(3.7766666666667)">
      <circle cx="3" cy="3" r="3"></circle>
    </g>
    <g transform="translate(594,528) scale(3.7766666666667)">
      <circle cx="3" cy="3" r="3"></circle>
    </g>
    <g transform="translate(638,528) scale(3.7766666666667)">
      <circle cx="3" cy="3" r="3"></circle>
    </g>
    <g transform="translate(704,528) scale(3.7766666666667)">
      <circle cx="3" cy="3" r="3"></circle>
    </g>
    <g transform="translate(770,528) scale(3.7766666666667)">
      <circle cx="3" cy="3" r="3"></circle>
    </g>
    <g transform="translate(792,528) scale(3.7766666666667)">
      <circle cx="3" cy="3" r="3"></circle>
    </g>
    <g transform="translate(836,528) scale(3.7766666666667)">
      <circle cx="3" cy="3" r="3"></circle>
    </g>
    <g transform="translate(858,528) scale(3.7766666666667)">
      <circle cx="3" cy="3" r="3"></circle>
    </g>
    <g transform="translate(880,528) scale(3.7766666666667)">
      <circle cx="3" cy="3" r="3"></circle>
    </g>
    <g transform="translate(44,550) scale(3.7766666666667)">
      <circle cx="3" cy="3" r="3"></circle>
    </g>
    <g transform="translate(132,550) scale(3.7766666666667)">
      <circle cx="3" cy="3" r="3"></circle>
    </g>
    <g transform="translate(198,550) scale(3.7766666666667)">
      <circle cx="3" cy="3" r="3"></circle>
    </g>
    <g transform="translate(242,550) scale(3.7766666666667)">
      <circle cx="3" cy="3" r="3"></circle>
    </g>
    <g transform="translate(308,550) scale(3.7766666666667)">
      <circle cx="3" cy="3" r="3"></circle>
    </g>
    <g transform="translate(330,550) scale(3.7766666666667)">
      <circle cx="3" cy="3" r="3"></circle>
    </g>
    <g transform="translate(374,550) scale(3.7766666666667)">
      <circle cx="3" cy="3" r="3"></circle>
    </g>
    <g transform="translate(484,550) scale(3.7766666666667)">
      <circle cx="3" cy="3" r="3"></circle>
    </g>
    <g transform="translate(506,550) scale(3.7766666666667)">
      <circle cx="3" cy="3" r="3"></circle>
    </g>
    <g transform="translate(550,550) scale(3.7766666666667)">
      <circle cx="3" cy="3" r="3"></circle>
    </g>
    <g transform="translate(594,550) scale(3.7766666666667)">
      <circle cx="3" cy="3" r="3"></circle>
    </g>
    <g transform="translate(616,550) scale(3.7766666666667)">
      <circle cx="3" cy="3" r="3"></circle>
    </g>
    <g transform="translate(748,550) scale(3.7766666666667)">
      <circle cx="3" cy="3" r="3"></circle>
    </g>
    <g transform="translate(770,550) scale(3.7766666666667)">
      <circle cx="3" cy="3" r="3"></circle>
    </g>
    <g transform="translate(814,550) scale(3.7766666666667)">
      <circle cx="3" cy="3" r="3"></circle>
    </g>
    <g transform="translate(836,550) scale(3.7766666666667)">
      <circle cx="3" cy="3" r="3"></circle>
    </g>
    <g transform="translate(924,550) scale(3.7766666666667)">
      <circle cx="3" cy="3" r="3"></circle>
    </g>
    <g transform="translate(44,572) scale(3.7766666666667)">
      <circle cx="3" cy="3" r="3"></circle>
    </g>
    <g transform="translate(88,572) scale(3.7766666666667)">
      <circle cx="3" cy="3" r="3"></circle>
    </g>
    <g transform="translate(132,572) scale(3.7766666666667)">
      <circle cx="3" cy="3" r="3"></circle>
    </g>
    <g transform="translate(176,572) scale(3.7766666666667)">
      <circle cx="3" cy="3" r="3"></circle>
    </g>
    <g transform="translate(220,572) scale(3.7766666666667)">
      <circle cx="3" cy="3" r="3"></circle>
    </g>
    <g transform="translate(242,572) scale(3.7766666666667)">
      <circle cx="3" cy="3" r="3"></circle>
    </g>
    <g transform="translate(418,572) scale(3.7766666666667)">
      <circle cx="3" cy="3" r="3"></circle>
    </g>
    <g transform="translate(462,572) scale(3.7766666666667)">
      <circle cx="3" cy="3" r="3"></circle>
    </g>
    <g transform="translate(484,572) scale(3.7766666666667)">
      <circle cx="3" cy="3" r="3"></circle>
    </g>
    <g transform="translate(506,572) scale(3.7766666666667)">
      <circle cx="3" cy="3" r="3"></circle>
    </g>
    <g transform="translate(616,572) scale(3.7766666666667)">
      <circle cx="3" cy="3" r="3"></circle>
    </g>
    <g transform="translate(638,572) scale(3.7766666666667)">
      <circle cx="3" cy="3" r="3"></circle>
    </g>
    <g transform="translate(660,572) scale(3.7766666666667)">
      <circle cx="3" cy="3" r="3"></circle>
    </g>
    <g transform="translate(682,572) scale(3.7766666666667)">
      <circle cx="3" cy="3" r="3"></circle>
    </g>
    <g transform="translate(880,572) scale(3.7766666666667)">
      <circle cx="3" cy="3" r="3"></circle>
    </g>
    <g transform="translate(902,572) scale(3.7766666666667)">
      <circle cx="3" cy="3" r="3"></circle>
    </g>
    <g transform="translate(44,594) scale(3.7766666666667)">
      <circle cx="3" cy="3" r="3"></circle>
    </g>
    <g transform="translate(88,594) scale(3.7766666666667)">
      <circle cx="3" cy="3" r="3"></circle>
    </g>
    <g transform="translate(110,594) scale(3.7766666666667)">
      <circle cx="3" cy="3" r="3"></circle>
    </g>
    <g transform="translate(132,594) scale(3.7766666666667)">
      <circle cx="3" cy="3" r="3"></circle>
    </g>
    <g transform="translate(154,594) scale(3.7766666666667)">
      <circle cx="3" cy="3" r="3"></circle>
    </g>
    <g transform="translate(198,594) scale(3.7766666666667)">
      <circle cx="3" cy="3" r="3"></circle>
    </g>
    <g transform="translate(220,594) scale(3.7766666666667)">
      <circle cx="3" cy="3" r="3"></circle>
    </g>
    <g transform="translate(242,594) scale(3.7766666666667)">
      <circle cx="3" cy="3" r="3"></circle>
    </g>
    <g transform="translate(308,594) scale(3.7766666666667)">
      <circle cx="3" cy="3" r="3"></circle>
    </g>
    <g transform="translate(440,594) scale(3.7766666666667)">
      <circle cx="3" cy="3" r="3"></circle>
    </g>
    <g transform="translate(462,594) scale(3.7766666666667)">
      <circle cx="3" cy="3" r="3"></circle>
    </g>
    <g transform="translate(484,594) scale(3.7766666666667)">
      <circle cx="3" cy="3" r="3"></circle>
    </g>
    <g transform="translate(616,594) scale(3.7766666666667)">
      <circle cx="3" cy="3" r="3"></circle>
    </g>
    <g transform="translate(660,594) scale(3.7766666666667)">
      <circle cx="3" cy="3" r="3"></circle>
    </g>
    <g transform="translate(726,594) scale(3.7766666666667)">
      <circle cx="3" cy="3" r="3"></circle>
    </g>
    <g transform="translate(792,594) scale(3.7766666666667)">
      <circle cx="3" cy="3" r="3"></circle>
    </g>
    <g transform="translate(814,594) scale(3.7766666666667)">
      <circle cx="3" cy="3" r="3"></circle>
    </g>
    <g transform="translate(836,594) scale(3.7766666666667)">
      <circle cx="3" cy="3" r="3"></circle>
    </g>
    <g transform="translate(858,594) scale(3.7766666666667)">
      <circle cx="3" cy="3" r="3"></circle>
    </g>
    <g transform="translate(902,594) scale(3.7766666666667)">
      <circle cx="3" cy="3" r="3"></circle>
    </g>
    <g transform="translate(924,594) scale(3.7766666666667)">
      <circle cx="3" cy="3" r="3"></circle>
    </g>
    <g transform="translate(110,616) scale(3.7766666666667)">
      <circle cx="3" cy="3" r="3"></circle>
    </g>
    <g transform="translate(132,616) scale(3.7766666666667)">
      <circle cx="3" cy="3" r="3"></circle>
    </g>
    <g transform="translate(176,616) scale(3.7766666666667)">
      <circle cx="3" cy="3" r="3"></circle>
    </g>
    <g transform="translate(220,616) scale(3.7766666666667)">
      <circle cx="3" cy="3" r="3"></circle>
    </g>
    <g transform="translate(308,616) scale(3.7766666666667)">
      <circle cx="3" cy="3" r="3"></circle>
    </g>
    <g transform="translate(352,616) scale(3.7766666666667)">
      <circle cx="3" cy="3" r="3"></circle>
    </g>
    <g transform="translate(396,616) scale(3.7766666666667)">
      <circle cx="3" cy="3" r="3"></circle>
    </g>
    <g transform="translate(418,616) scale(3.7766666666667)">
      <circle cx="3" cy="3" r="3"></circle>
    </g>
    <g transform="translate(440,616) scale(3.7766666666667)">
      <circle cx="3" cy="3" r="3"></circle>
    </g>
    <g transform="translate(462,616) scale(3.7766666666667)">
      <circle cx="3" cy="3" r="3"></circle>
    </g>
    <g transform="translate(506,616) scale(3.7766666666667)">
      <circle cx="3" cy="3" r="3"></circle>
    </g>
    <g transform="translate(638,616) scale(3.7766666666667)">
      <circle cx="3" cy="3" r="3"></circle>
    </g>
    <g transform="translate(682,616) scale(3.7766666666667)">
      <circle cx="3" cy="3" r="3"></circle>
    </g>
    <g transform="translate(748,616) scale(3.7766666666667)">
      <circle cx="3" cy="3" r="3"></circle>
    </g>
    <g transform="translate(792,616) scale(3.7766666666667)">
      <circle cx="3" cy="3" r="3"></circle>
    </g>
    <g transform="translate(44,638) scale(3.7766666666667)">
      <circle cx="3" cy="3" r="3"></circle>
    </g>
    <g transform="translate(66,638) scale(3.7766666666667)">
      <circle cx="3" cy="3" r="3"></circle>
    </g>
    <g transform="translate(110,638) scale(3.7766666666667)">
      <circle cx="3" cy="3" r="3"></circle>
    </g>
    <g transform="translate(198,638) scale(3.7766666666667)">
      <circle cx="3" cy="3" r="3"></circle>
    </g>
    <g transform="translate(220,638) scale(3.7766666666667)">
      <circle cx="3" cy="3" r="3"></circle>
    </g>
    <g transform="translate(352,638) scale(3.7766666666667)">
      <circle cx="3" cy="3" r="3"></circle>
    </g>
    <g transform="translate(418,638) scale(3.7766666666667)">
      <circle cx="3" cy="3" r="3"></circle>
    </g>
    <g transform="translate(440,638) scale(3.7766666666667)">
      <circle cx="3" cy="3" r="3"></circle>
    </g>
    <g transform="translate(484,638) scale(3.7766666666667)">
      <circle cx="3" cy="3" r="3"></circle>
    </g>
    <g transform="translate(506,638) scale(3.7766666666667)">
      <circle cx="3" cy="3" r="3"></circle>
    </g>
    <g transform="translate(528,638) scale(3.7766666666667)">
      <circle cx="3" cy="3" r="3"></circle>
    </g>
    <g transform="translate(572,638) scale(3.7766666666667)">
      <circle cx="3" cy="3" r="3"></circle>
    </g>
    <g transform="translate(594,638) scale(3.7766666666667)">
      <circle cx="3" cy="3" r="3"></circle>
    </g>
    <g transform="translate(616,638) scale(3.7766666666667)">
      <circle cx="3" cy="3" r="3"></circle>
    </g>
    <g transform="translate(638,638) scale(3.7766666666667)">
      <circle cx="3" cy="3" r="3"></circle>
    </g>
    <g transform="translate(726,638) scale(3.7766666666667)">
      <circle cx="3" cy="3" r="3"></circle>
    </g>
    <g transform="translate(748,638) scale(3.7766666666667)">
      <circle cx="3" cy="3" r="3"></circle>
    </g>
    <g transform="translate(770,638) scale(3.7766666666667)">
      <circle cx="3" cy="3" r="3"></circle>
    </g>
    <g transform="translate(814,638) scale(3.7766666666667)">
      <circle cx="3" cy="3" r="3"></circle>
    </g>
    <g transform="translate(858,638) scale(3.7766666666667)">
      <circle cx="3" cy="3" r="3"></circle>
    </g>
    <g transform="translate(44,660) scale(3.7766666666667)">
      <circle cx="3" cy="3" r="3"></circle>
    </g>
    <g transform="translate(66,660) scale(3.7766666666667)">
      <circle cx="3" cy="3" r="3"></circle>
    </g>
    <g transform="translate(88,660) scale(3.7766666666667)">
      <circle cx="3" cy="3" r="3"></circle>
    </g>
    <g transform="translate(110,660) scale(3.7766666666667)">
      <circle cx="3" cy="3" r="3"></circle>
    </g>
    <g transform="translate(132,660) scale(3.7766666666667)">
      <circle cx="3" cy="3" r="3"></circle>
    </g>
    <g transform="translate(176,660) scale(3.7766666666667)">
      <circle cx="3" cy="3" r="3"></circle>
    </g>
    <g transform="translate(198,660) scale(3.7766666666667)">
      <circle cx="3" cy="3" r="3"></circle>
    </g>
    <g transform="translate(220,660) scale(3.7766666666667)">
      <circle cx="3" cy="3" r="3"></circle>
    </g>
    <g transform="translate(242,660) scale(3.7766666666667)">
      <circle cx="3" cy="3" r="3"></circle>
    </g>
    <g transform="translate(374,660) scale(3.7766666666667)">
      <circle cx="3" cy="3" r="3"></circle>
    </g>
    <g transform="translate(396,660) scale(3.7766666666667)">
      <circle cx="3" cy="3" r="3"></circle>
    </g>
    <g transform="translate(506,660) scale(3.7766666666667)">
      <circle cx="3" cy="3" r="3"></circle>
    </g>
    <g transform="translate(550,660) scale(3.7766666666667)">
      <circle cx="3" cy="3" r="3"></circle>
    </g>
    <g transform="translate(616,660) scale(3.7766666666667)">
      <circle cx="3" cy="3" r="3"></circle>
    </g>
    <g transform="translate(682,660) scale(3.7766666666667)">
      <circle cx="3" cy="3" r="3"></circle>
    </g>
    <g transform="translate(726,660) scale(3.7766666666667)">
      <circle cx="3" cy="3" r="3"></circle>
    </g>
    <g transform="translate(858,660) scale(3.7766666666667)">
      <circle cx="3" cy="3" r="3"></circle>
    </g>
    <g transform="translate(880,660) scale(3.7766666666667)">
      <circle cx="3" cy="3" r="3"></circle>
    </g>
    <g transform="translate(902,660) scale(3.7766666666667)">
      <circle cx="3" cy="3" r="3"></circle>
    </g>
    <g transform="translate(924,660) scale(3.7766666666667)">
      <circle cx="3" cy="3" r="3"></circle>
    </g>
    <g transform="translate(44,682) scale(3.7766666666667)">
      <circle cx="3" cy="3" r="3"></circle>
    </g>
    <g transform="translate(154,682) scale(3.7766666666667)">
      <circle cx="3" cy="3" r="3"></circle>
    </g>
    <g transform="translate(242,682) scale(3.7766666666667)">
      <circle cx="3" cy="3" r="3"></circle>
    </g>
    <g transform="translate(286,682) scale(3.7766666666667)">
      <circle cx="3" cy="3" r="3"></circle>
    </g>
    <g transform="translate(330,682) scale(3.7766666666667)">
      <circle cx="3" cy="3" r="3"></circle>
    </g>
    <g transform="translate(352,682) scale(3.7766666666667)">
      <circle cx="3" cy="3" r="3"></circle>
    </g>
    <g transform="translate(374,682) scale(3.7766666666667)">
      <circle cx="3" cy="3" r="3"></circle>
    </g>
    <g transform="translate(396,682) scale(3.7766666666667)">
      <circle cx="3" cy="3" r="3"></circle>
    </g>
    <g transform="translate(550,682) scale(3.7766666666667)">
      <circle cx="3" cy="3" r="3"></circle>
    </g>
    <g transform="translate(616,682) scale(3.7766666666667)">
      <circle cx="3" cy="3" r="3"></circle>
    </g>
    <g transform="translate(638,682) scale(3.7766666666667)">
      <circle cx="3" cy="3" r="3"></circle>
    </g>
    <g transform="translate(660,682) scale(3.7766666666667)">
      <circle cx="3" cy="3" r="3"></circle>
    </g>
    <g transform="translate(704,682) scale(3.7766666666667)">
      <circle cx="3" cy="3" r="3"></circle>
    </g>
    <g transform="translate(770,682) scale(3.7766666666667)">
      <circle cx="3" cy="3" r="3"></circle>
    </g>
    <g transform="translate(792,682) scale(3.7766666666667)">
      <circle cx="3" cy="3" r="3"></circle>
    </g>
    <g transform="translate(836,682) scale(3.7766666666667)">
      <circle cx="3" cy="3" r="3"></circle>
    </g>
    <g transform="translate(858,682) scale(3.7766666666667)">
      <circle cx="3" cy="3" r="3"></circle>
    </g>
    <g transform="translate(880,682) scale(3.7766666666667)">
      <circle cx="3" cy="3" r="3"></circle>
    </g>
    <g transform="translate(902,682) scale(3.7766666666667)">
      <circle cx="3" cy="3" r="3"></circle>
    </g>
    <g transform="translate(924,682) scale(3.7766666666667)">
      <circle cx="3" cy="3" r="3"></circle>
    </g>
    <g transform="translate(44,704) scale(3.7766666666667)">
      <circle cx="3" cy="3" r="3"></circle>
    </g>
    <g transform="translate(88,704) scale(3.7766666666667)">
      <circle cx="3" cy="3" r="3"></circle>
    </g>
    <g transform="translate(110,704) scale(3.7766666666667)">
      <circle cx="3" cy="3" r="3"></circle>
    </g>
    <g transform="translate(132,704) scale(3.7766666666667)">
      <circle cx="3" cy="3" r="3"></circle>
    </g>
    <g transform="translate(176,704) scale(3.7766666666667)">
      <circle cx="3" cy="3" r="3"></circle>
    </g>
    <g transform="translate(198,704) scale(3.7766666666667)">
      <circle cx="3" cy="3" r="3"></circle>
    </g>
    <g transform="translate(242,704) scale(3.7766666666667)">
      <circle cx="3" cy="3" r="3"></circle>
    </g>
    <g transform="translate(286,704) scale(3.7766666666667)">
      <circle cx="3" cy="3" r="3"></circle>
    </g>
    <g transform="translate(374,704) scale(3.7766666666667)">
      <circle cx="3" cy="3" r="3"></circle>
    </g>
    <g transform="translate(462,704) scale(3.7766666666667)">
      <circle cx="3" cy="3" r="3"></circle>
    </g>
    <g transform="translate(484,704) scale(3.7766666666667)">
      <circle cx="3" cy="3" r="3"></circle>
    </g>
    <g transform="translate(506,704) scale(3.7766666666667)">
      <circle cx="3" cy="3" r="3"></circle>
    </g>
    <g transform="translate(550,704) scale(3.7766666666667)">
      <circle cx="3" cy="3" r="3"></circle>
    </g>
    <g transform="translate(682,704) scale(3.7766666666667)">
      <circle cx="3" cy="3" r="3"></circle>
    </g>
    <g transform="translate(704,704) scale(3.7766666666667)">
      <circle cx="3" cy="3" r="3"></circle>
    </g>
    <g transform="translate(748,704) scale(3.7766666666667)">
      <circle cx="3" cy="3" r="3"></circle>
    </g>
    <g transform="translate(770,704) scale(3.7766666666667)">
      <circle cx="3" cy="3" r="3"></circle>
    </g>
    <g transform="translate(792,704) scale(3.7766666666667)">
      <circle cx="3" cy="3" r="3"></circle>
    </g>
    <g transform="translate(814,704) scale(3.7766666666667)">
      <circle cx="3" cy="3" r="3"></circle>
    </g>
    <g transform="translate(836,704) scale(3.7766666666667)">
      <circle cx="3" cy="3" r="3"></circle>
    </g>
    <g transform="translate(858,704) scale(3.7766666666667)">
      <circle cx="3" cy="3" r="3"></circle>
    </g>
    <g transform="translate(880,704) scale(3.7766666666667)">
      <circle cx="3" cy="3" r="3"></circle>
    </g>
    <g transform="translate(44,726) scale(3.7766666666667)">
      <circle cx="3" cy="3" r="3"></circle>
    </g>
    <g transform="translate(88,726) scale(3.7766666666667)">
      <circle cx="3" cy="3" r="3"></circle>
    </g>
    <g transform="translate(198,726) scale(3.7766666666667)">
      <circle cx="3" cy="3" r="3"></circle>
    </g>
    <g transform="translate(220,726) scale(3.7766666666667)">
      <circle cx="3" cy="3" r="3"></circle>
    </g>
    <g transform="translate(264,726) scale(3.7766666666667)">
      <circle cx="3" cy="3" r="3"></circle>
    </g>
    <g transform="translate(286,726) scale(3.7766666666667)">
      <circle cx="3" cy="3" r="3"></circle>
    </g>
    <g transform="translate(374,726) scale(3.7766666666667)">
      <circle cx="3" cy="3" r="3"></circle>
    </g>
    <g transform="translate(396,726) scale(3.7766666666667)">
      <circle cx="3" cy="3" r="3"></circle>
    </g>
    <g transform="translate(484,726) scale(3.7766666666667)">
      <circle cx="3" cy="3" r="3"></circle>
    </g>
    <g transform="translate(528,726) scale(3.7766666666667)">
      <circle cx="3" cy="3" r="3"></circle>
    </g>
    <g transform="translate(660,726) scale(3.7766666666667)">
      <circle cx="3" cy="3" r="3"></circle>
    </g>
    <g transform="translate(726,726) scale(3.7766666666667)">
      <circle cx="3" cy="3" r="3"></circle>
    </g>
    <g transform="translate(770,726) scale(3.7766666666667)">
      <circle cx="3" cy="3" r="3"></circle>
    </g>
    <g transform="translate(792,726) scale(3.7766666666667)">
      <circle cx="3" cy="3" r="3"></circle>
    </g>
    <g transform="translate(814,726) scale(3.7766666666667)">
      <circle cx="3" cy="3" r="3"></circle>
    </g>
    <g transform="translate(858,726) scale(3.7766666666667)">
      <circle cx="3" cy="3" r="3"></circle>
    </g>
    <g transform="translate(44,748) scale(3.7766666666667)">
      <circle cx="3" cy="3" r="3"></circle>
    </g>
    <g transform="translate(88,748) scale(3.7766666666667)">
      <circle cx="3" cy="3" r="3"></circle>
    </g>
    <g transform="translate(110,748) scale(3.7766666666667)">
      <circle cx="3" cy="3" r="3"></circle>
    </g>
    <g transform="translate(132,748) scale(3.7766666666667)">
      <circle cx="3" cy="3" r="3"></circle>
    </g>
    <g transform="translate(176,748) scale(3.7766666666667)">
      <circle cx="3" cy="3" r="3"></circle>
    </g>
    <g transform="translate(198,748) scale(3.7766666666667)">
      <circle cx="3" cy="3" r="3"></circle>
    </g>
    <g transform="translate(220,748) scale(3.7766666666667)">
      <circle cx="3" cy="3" r="3"></circle>
    </g>
    <g transform="translate(242,748) scale(3.7766666666667)">
      <circle cx="3" cy="3" r="3"></circle>
    </g>
    <g transform="translate(264,748) scale(3.7766666666667)">
      <circle cx="3" cy="3" r="3"></circle>
    </g>
    <g transform="translate(308,748) scale(3.7766666666667)">
      <circle cx="3" cy="3" r="3"></circle>
    </g>
    <g transform="translate(352,748) scale(3.7766666666667)">
      <circle cx="3" cy="3" r="3"></circle>
    </g>
    <g transform="translate(396,748) scale(3.7766666666667)">
      <circle cx="3" cy="3" r="3"></circle>
    </g>
    <g transform="translate(418,748) scale(3.7766666666667)">
      <circle cx="3" cy="3" r="3"></circle>
    </g>
    <g transform="translate(440,748) scale(3.7766666666667)">
      <circle cx="3" cy="3" r="3"></circle>
    </g>
    <g transform="translate(462,748) scale(3.7766666666667)">
      <circle cx="3" cy="3" r="3"></circle>
    </g>
    <g transform="translate(484,748) scale(3.7766666666667)">
      <circle cx="3" cy="3" r="3"></circle>
    </g>
    <g transform="translate(506,748) scale(3.7766666666667)">
      <circle cx="3" cy="3" r="3"></circle>
    </g>
    <g transform="translate(528,748) scale(3.7766666666667)">
      <circle cx="3" cy="3" r="3"></circle>
    </g>
    <g transform="translate(594,748) scale(3.7766666666667)">
      <circle cx="3" cy="3" r="3"></circle>
    </g>
    <g transform="translate(616,748) scale(3.7766666666667)">
      <circle cx="3" cy="3" r="3"></circle>
    </g>
    <g transform="translate(682,748) scale(3.7766666666667)">
      <circle cx="3" cy="3" r="3"></circle>
    </g>
    <g transform="translate(726,748) scale(3.7766666666667)">
      <circle cx="3" cy="3" r="3"></circle>
    </g>
    <g transform="translate(748,748) scale(3.7766666666667)">
      <circle cx="3" cy="3" r="3"></circle>
    </g>
    <g transform="translate(770,748) scale(3.7766666666667)">
      <circle cx="3" cy="3" r="3"></circle>
    </g>
    <g transform="translate(792,748) scale(3.7766666666667)">
      <circle cx="3" cy="3" r="3"></circle>
    </g>
    <g transform="translate(814,748) scale(3.7766666666667)">
      <circle cx="3" cy="3" r="3"></circle>
    </g>
    <g transform="translate(836,748) scale(3.7766666666667)">
      <circle cx="3" cy="3" r="3"></circle>
    </g>
    <g transform="translate(880,748) scale(3.7766666666667)">
      <circle cx="3" cy="3" r="3"></circle>
    </g>
    <g transform="translate(220,770) scale(3.7766666666667)">
      <circle cx="3" cy="3" r="3"></circle>
    </g>
    <g transform="translate(242,770) scale(3.7766666666667)">
      <circle cx="3" cy="3" r="3"></circle>
    </g>
    <g transform="translate(264,770) scale(3.7766666666667)">
      <circle cx="3" cy="3" r="3"></circle>
    </g>
    <g transform="translate(286,770) scale(3.7766666666667)">
      <circle cx="3" cy="3" r="3"></circle>
    </g>
    <g transform="translate(330,770) scale(3.7766666666667)">
      <circle cx="3" cy="3" r="3"></circle>
    </g>
    <g transform="translate(374,770) scale(3.7766666666667)">
      <circle cx="3" cy="3" r="3"></circle>
    </g>
    <g transform="translate(396,770) scale(3.7766666666667)">
      <circle cx="3" cy="3" r="3"></circle>
    </g>
    <g transform="translate(440,770) scale(3.7766666666667)">
      <circle cx="3" cy="3" r="3"></circle>
    </g>
    <g transform="translate(484,770) scale(3.7766666666667)">
      <circle cx="3" cy="3" r="3"></circle>
    </g>
    <g transform="translate(506,770) scale(3.7766666666667)">
      <circle cx="3" cy="3" r="3"></circle>
    </g>
    <g transform="translate(550,770) scale(3.7766666666667)">
      <circle cx="3" cy="3" r="3"></circle>
    </g>
    <g transform="translate(572,770) scale(3.7766666666667)">
      <circle cx="3" cy="3" r="3"></circle>
    </g>
    <g transform="translate(594,770) scale(3.7766666666667)">
      <circle cx="3" cy="3" r="3"></circle>
    </g>
    <g transform="translate(660,770) scale(3.7766666666667)">
      <circle cx="3" cy="3" r="3"></circle>
    </g>
    <g transform="translate(704,770) scale(3.7766666666667)">
      <circle cx="3" cy="3" r="3"></circle>
    </g>
    <g transform="translate(748,770) scale(3.7766666666667)">
      <circle cx="3" cy="3" r="3"></circle>
    </g>
    <g transform="translate(836,770) scale(3.7766666666667)">
      <circle cx="3" cy="3" r="3"></circle>
    </g>
    <g transform="translate(858,770) scale(3.7766666666667)">
      <circle cx="3" cy="3" r="3"></circle>
    </g>
    <g transform="translate(880,770) scale(3.7766666666667)">
      <circle cx="3" cy="3" r="3"></circle>
    </g>
    <g transform="translate(902,770) scale(3.7766666666667)">
      <circle cx="3" cy="3" r="3"></circle>
    </g>
    <g transform="translate(924,770) scale(3.7766666666667)">
      <circle cx="3" cy="3" r="3"></circle>
    </g>
    <g transform="translate(242,792) scale(3.7766666666667)">
      <circle cx="3" cy="3" r="3"></circle>
    </g>
    <g transform="translate(286,792) scale(3.7766666666667)">
      <circle cx="3" cy="3" r="3"></circle>
    </g>
    <g transform="translate(308,792) scale(3.7766666666667)">
      <circle cx="3" cy="3" r="3"></circle>
    </g>
    <g transform="translate(330,792) scale(3.7766666666667)">
      <circle cx="3" cy="3" r="3"></circle>
    </g>
    <g transform="translate(396,792) scale(3.7766666666667)">
      <circle cx="3" cy="3" r="3"></circle>
    </g>
    <g transform="translate(462,792) scale(3.7766666666667)">
      <circle cx="3" cy="3" r="3"></circle>
    </g>
    <g transform="translate(484,792) scale(3.7766666666667)">
      <circle cx="3" cy="3" r="3"></circle>
    </g>
    <g transform="translate(528,792) scale(3.7766666666667)">
      <circle cx="3" cy="3" r="3"></circle>
    </g>
    <g transform="translate(572,792) scale(3.7766666666667)">
      <circle cx="3" cy="3" r="3"></circle>
    </g>
    <g transform="translate(616,792) scale(3.7766666666667)">
      <circle cx="3" cy="3" r="3"></circle>
    </g>
    <g transform="translate(638,792) scale(3.7766666666667)">
      <circle cx="3" cy="3" r="3"></circle>
    </g>
    <g transform="translate(660,792) scale(3.7766666666667)">
      <circle cx="3" cy="3" r="3"></circle>
    </g>
    <g transform="translate(704,792) scale(3.7766666666667)">
      <circle cx="3" cy="3" r="3"></circle>
    </g>
    <g transform="translate(726,792) scale(3.7766666666667)">
      <circle cx="3" cy="3" r="3"></circle>
    </g>
    <g transform="translate(748,792) scale(3.7766666666667)">
      <circle cx="3" cy="3" r="3"></circle>
    </g>
    <g transform="translate(792,792) scale(3.7766666666667)">
      <circle cx="3" cy="3" r="3"></circle>
    </g>
    <g transform="translate(836,792) scale(3.7766666666667)">
      <circle cx="3" cy="3" r="3"></circle>
    </g>
    <g transform="translate(858,792) scale(3.7766666666667)">
      <circle cx="3" cy="3" r="3"></circle>
    </g>
    <g transform="translate(880,792) scale(3.7766666666667)">
      <circle cx="3" cy="3" r="3"></circle>
    </g>
    <g transform="translate(902,792) scale(3.7766666666667)">
      <circle cx="3" cy="3" r="3"></circle>
    </g>
    <g transform="translate(286,814) scale(3.7766666666667)">
      <circle cx="3" cy="3" r="3"></circle>
    </g>
    <g transform="translate(484,814) scale(3.7766666666667)">
      <circle cx="3" cy="3" r="3"></circle>
    </g>
    <g transform="translate(528,814) scale(3.7766666666667)">
      <circle cx="3" cy="3" r="3"></circle>
    </g>
    <g transform="translate(550,814) scale(3.7766666666667)">
      <circle cx="3" cy="3" r="3"></circle>
    </g>
    <g transform="translate(572,814) scale(3.7766666666667)">
      <circle cx="3" cy="3" r="3"></circle>
    </g>
    <g transform="translate(594,814) scale(3.7766666666667)">
      <circle cx="3" cy="3" r="3"></circle>
    </g>
    <g transform="translate(638,814) scale(3.7766666666667)">
      <circle cx="3" cy="3" r="3"></circle>
    </g>
    <g transform="translate(726,814) scale(3.7766666666667)">
      <circle cx="3" cy="3" r="3"></circle>
    </g>
    <g transform="translate(748,814) scale(3.7766666666667)">
      <circle cx="3" cy="3" r="3"></circle>
    </g>
    <g transform="translate(836,814) scale(3.7766666666667)">
      <circle cx="3" cy="3" r="3"></circle>
    </g>
    <g transform="translate(858,814) scale(3.7766666666667)">
      <circle cx="3" cy="3" r="3"></circle>
    </g>
    <g transform="translate(902,814) scale(3.7766666666667)">
      <circle cx="3" cy="3" r="3"></circle>
    </g>
    <g transform="translate(924,814) scale(3.7766666666667)">
      <circle cx="3" cy="3" r="3"></circle>
    </g>
    <g transform="translate(220,836) scale(3.7766666666667)">
      <circle cx="3" cy="3" r="3"></circle>
    </g>
    <g transform="translate(286,836) scale(3.7766666666667)">
      <circle cx="3" cy="3" r="3"></circle>
    </g>
    <g transform="translate(352,836) scale(3.7766666666667)">
      <circle cx="3" cy="3" r="3"></circle>
    </g>
    <g transform="translate(506,836) scale(3.7766666666667)">
      <circle cx="3" cy="3" r="3"></circle>
    </g>
    <g transform="translate(594,836) scale(3.7766666666667)">
      <circle cx="3" cy="3" r="3"></circle>
    </g>
    <g transform="translate(638,836) scale(3.7766666666667)">
      <circle cx="3" cy="3" r="3"></circle>
    </g>
    <g transform="translate(660,836) scale(3.7766666666667)">
      <circle cx="3" cy="3" r="3"></circle>
    </g>
    <g transform="translate(704,836) scale(3.7766666666667)">
      <circle cx="3" cy="3" r="3"></circle>
    </g>
    <g transform="translate(748,836) scale(3.7766666666667)">
      <circle cx="3" cy="3" r="3"></circle>
    </g>
    <g transform="translate(770,836) scale(3.7766666666667)">
      <circle cx="3" cy="3" r="3"></circle>
    </g>
    <g transform="translate(792,836) scale(3.7766666666667)">
      <circle cx="3" cy="3" r="3"></circle>
    </g>
    <g transform="translate(814,836) scale(3.7766666666667)">
      <circle cx="3" cy="3" r="3"></circle>
    </g>
    <g transform="translate(836,836) scale(3.7766666666667)">
      <circle cx="3" cy="3" r="3"></circle>
    </g>
    <g transform="translate(880,836) scale(3.7766666666667)">
      <circle cx="3" cy="3" r="3"></circle>
    </g>
    <g transform="translate(902,836) scale(3.7766666666667)">
      <circle cx="3" cy="3" r="3"></circle>
    </g>
    <g transform="translate(220,858) scale(3.7766666666667)">
      <circle cx="3" cy="3" r="3"></circle>
    </g>
    <g transform="translate(286,858) scale(3.7766666666667)">
      <circle cx="3" cy="3" r="3"></circle>
    </g>
    <g transform="translate(330,858) scale(3.7766666666667)">
      <circle cx="3" cy="3" r="3"></circle>
    </g>
    <g transform="translate(352,858) scale(3.7766666666667)">
      <circle cx="3" cy="3" r="3"></circle>
    </g>
    <g transform="translate(374,858) scale(3.7766666666667)">
      <circle cx="3" cy="3" r="3"></circle>
    </g>
    <g transform="translate(396,858) scale(3.7766666666667)">
      <circle cx="3" cy="3" r="3"></circle>
    </g>
    <g transform="translate(418,858) scale(3.7766666666667)">
      <circle cx="3" cy="3" r="3"></circle>
    </g>
    <g transform="translate(440,858) scale(3.7766666666667)">
      <circle cx="3" cy="3" r="3"></circle>
    </g>
    <g transform="translate(462,858) scale(3.7766666666667)">
      <circle cx="3" cy="3" r="3"></circle>
    </g>
    <g transform="translate(484,858) scale(3.7766666666667)">
      <circle cx="3" cy="3" r="3"></circle>
    </g>
    <g transform="translate(506,858) scale(3.7766666666667)">
      <circle cx="3" cy="3" r="3"></circle>
    </g>
    <g transform="translate(572,858) scale(3.7766666666667)">
      <circle cx="3" cy="3" r="3"></circle>
    </g>
    <g transform="translate(616,858) scale(3.7766666666667)">
      <circle cx="3" cy="3" r="3"></circle>
    </g>
    <g transform="translate(660,858) scale(3.7766666666667)">
      <circle cx="3" cy="3" r="3"></circle>
    </g>
    <g transform="translate(770,858) scale(3.7766666666667)">
      <circle cx="3" cy="3" r="3"></circle>
    </g>
    <g transform="translate(814,858) scale(3.7766666666667)">
      <circle cx="3" cy="3" r="3"></circle>
    </g>
    <g transform="translate(858,858) scale(3.7766666666667)">
      <circle cx="3" cy="3" r="3"></circle>
    </g>
    <g transform="translate(880,858) scale(3.7766666666667)">
      <circle cx="3" cy="3" r="3"></circle>
    </g>
    <g transform="translate(924,858) scale(3.7766666666667)">
      <circle cx="3" cy="3" r="3"></circle>
    </g>
    <g transform="translate(220,880) scale(3.7766666666667)">
      <circle cx="3" cy="3" r="3"></circle>
    </g>
    <g transform="translate(242,880) scale(3.7766666666667)">
      <circle cx="3" cy="3" r="3"></circle>
    </g>
    <g transform="translate(264,880) scale(3.7766666666667)">
      <circle cx="3" cy="3" r="3"></circle>
    </g>
    <g transform="translate(330,880) scale(3.7766666666667)">
      <circle cx="3" cy="3" r="3"></circle>
    </g>
    <g transform="translate(352,880) scale(3.7766666666667)">
      <circle cx="3" cy="3" r="3"></circle>
    </g>
    <g transform="translate(374,880) scale(3.7766666666667)">
      <circle cx="3" cy="3" r="3"></circle>
    </g>
    <g transform="translate(418,880) scale(3.7766666666667)">
      <circle cx="3" cy="3" r="3"></circle>
    </g>
    <g transform="translate(440,880) scale(3.7766666666667)">
      <circle cx="3" cy="3" r="3"></circle>
    </g>
    <g transform="translate(506,880) scale(3.7766666666667)">
      <circle cx="3" cy="3" r="3"></circle>
    </g>
    <g transform="translate(594,880) scale(3.7766666666667)">
      <circle cx="3" cy="3" r="3"></circle>
    </g>
    <g transform="translate(616,880) scale(3.7766666666667)">
      <circle cx="3" cy="3" r="3"></circle>
    </g>
    <g transform="translate(638,880) scale(3.7766666666667)">
      <circle cx="3" cy="3" r="3"></circle>
    </g>
    <g transform="translate(660,880) scale(3.7766666666667)">
      <circle cx="3" cy="3" r="3"></circle>
    </g>
    <g transform="translate(726,880) scale(3.7766666666667)">
      <circle cx="3" cy="3" r="3"></circle>
    </g>
    <g transform="translate(770,880) scale(3.7766666666667)">
      <circle cx="3" cy="3" r="3"></circle>
    </g>
    <g transform="translate(792,880) scale(3.7766666666667)">
      <circle cx="3" cy="3" r="3"></circle>
    </g>
    <g transform="translate(814,880) scale(3.7766666666667)">
      <circle cx="3" cy="3" r="3"></circle>
    </g>
    <g transform="translate(836,880) scale(3.7766666666667)">
      <circle cx="3" cy="3" r="3"></circle>
    </g>
    <g transform="translate(858,880) scale(3.7766666666667)">
      <circle cx="3" cy="3" r="3"></circle>
    </g>
    <g transform="translate(902,880) scale(3.7766666666667)">
      <circle cx="3" cy="3" r="3"></circle>
    </g>
    <g transform="translate(242,902) scale(3.7766666666667)">
      <circle cx="3" cy="3" r="3"></circle>
    </g>
    <g transform="translate(264,902) scale(3.7766666666667)">
      <circle cx="3" cy="3" r="3"></circle>
    </g>
    <g transform="translate(352,902) scale(3.7766666666667)">
      <circle cx="3" cy="3" r="3"></circle>
    </g>
    <g transform="translate(396,902) scale(3.7766666666667)">
      <circle cx="3" cy="3" r="3"></circle>
    </g>
    <g transform="translate(440,902) scale(3.7766666666667)">
      <circle cx="3" cy="3" r="3"></circle>
    </g>
    <g transform="translate(462,902) scale(3.7766666666667)">
      <circle cx="3" cy="3" r="3"></circle>
    </g>
    <g transform="translate(506,902) scale(3.7766666666667)">
      <circle cx="3" cy="3" r="3"></circle>
    </g>
    <g transform="translate(550,902) scale(3.7766666666667)">
      <circle cx="3" cy="3" r="3"></circle>
    </g>
    <g transform="translate(616,902) scale(3.7766666666667)">
      <circle cx="3" cy="3" r="3"></circle>
    </g>
    <g transform="translate(660,902) scale(3.7766666666667)">
      <circle cx="3" cy="3" r="3"></circle>
    </g>
    <g transform="translate(704,902) scale(3.7766666666667)">
      <circle cx="3" cy="3" r="3"></circle>
    </g>
    <g transform="translate(748,902) scale(3.7766666666667)">
      <circle cx="3" cy="3" r="3"></circle>
    </g>
    <g transform="translate(792,902) scale(3.7766666666667)">
      <circle cx="3" cy="3" r="3"></circle>
    </g>
    <g transform="translate(836,902) scale(3.7766666666667)">
      <circle cx="3" cy="3" r="3"></circle>
    </g>
    <g transform="translate(858,902) scale(3.7766666666667)">
      <circle cx="3" cy="3" r="3"></circle>
    </g>
    <g transform="translate(902,902) scale(3.7766666666667)">
      <circle cx="3" cy="3" r="3"></circle>
    </g>
    <g transform="translate(264,924) scale(3.7766666666667)">
      <circle cx="3" cy="3" r="3"></circle>
    </g>
    <g transform="translate(418,924) scale(3.7766666666667)">
      <circle cx="3" cy="3" r="3"></circle>
    </g>
    <g transform="translate(440,924) scale(3.7766666666667)">
      <circle cx="3" cy="3" r="3"></circle>
    </g>
    <g transform="translate(462,924) scale(3.7766666666667)">
      <circle cx="3" cy="3" r="3"></circle>
    </g>
    <g transform="translate(506,924) scale(3.7766666666667)">
      <circle cx="3" cy="3" r="3"></circle>
    </g>
    <g transform="translate(550,924) scale(3.7766666666667)">
      <circle cx="3" cy="3" r="3"></circle>
    </g>
    <g transform="translate(594,924) scale(3.7766666666667)">
      <circle cx="3" cy="3" r="3"></circle>
    </g>
    <g transform="translate(638,924) scale(3.7766666666667)">
      <circle cx="3" cy="3" r="3"></circle>
    </g>
    <g transform="translate(682,924) scale(3.7766666666667)">
      <circle cx="3" cy="3" r="3"></circle>
    </g>
    <g transform="translate(726,924) scale(3.7766666666667)">
      <circle cx="3" cy="3" r="3"></circle>
    </g>
    <g transform="translate(770,924) scale(3.7766666666667)">
      <circle cx="3" cy="3" r="3"></circle>
    </g>
    <g transform="translate(792,924) scale(3.7766666666667)">
      <circle cx="3" cy="3" r="3"></circle>
    </g>
    <g transform="translate(814,924) scale(3.7766666666667)">
      <circle cx="3" cy="3" r="3"></circle>
    </g>
    <g transform="translate(836,924) scale(3.7766666666667)">
      <circle cx="3" cy="3" r="3"></circle>
    </g>
    <g transform="translate(858,924) scale(3.7766666666667)">
      <circle cx="3" cy="3" r="3"></circle>
    </g>
    <g transform="translate(880,924) scale(3.7766666666667)">
      <circle cx="3" cy="3" r="3"></circle>
    </g>
  </g>
  <g>
    <g transform="translate(44,44)" fill="#000000">
      <g transform="scale(11)">
        <path
          d="M0,7L0,7c0,3.9,3.1,7,7,7h0c3.9,0,7-3.1,7-7v0c0-3.9-3.1-7-7-7h0C3.1,0,0,3.1,0,7z M7,12L7,12c-2.8,0-5-2.2-5-5v0 c0-2.8,2.2-5,5-5h0c2.8,0,5,2.2,5,5v0C12,9.8,9.8,12,7,12z">
        </path>
      </g>
    </g>
    <g transform="translate(792,44)" fill="#000000">
      <g transform="scale(11)">
        <path
          d="M0,7L0,7c0,3.9,3.1,7,7,7h0c3.9,0,7-3.1,7-7v0c0-3.9-3.1-7-7-7h0C3.1,0,0,3.1,0,7z M7,12L7,12c-2.8,0-5-2.2-5-5v0 c0-2.8,2.2-5,5-5h0c2.8,0,5,2.2,5,5v0C12,9.8,9.8,12,7,12z">
        </path>
      </g>
    </g>
    <g transform="translate(44,792)" fill="#000000">
      <g transform="scale(11)">
        <path
          d="M0,7L0,7c0,3.9,3.1,7,7,7h0c3.9,0,7-3.1,7-7v0c0-3.9-3.1-7-7-7h0C3.1,0,0,3.1,0,7z M7,12L7,12c-2.8,0-5-2.2-5-5v0 c0-2.8,2.2-5,5-5h0c2.8,0,5,2.2,5,5v0C12,9.8,9.8,12,7,12z">
        </path>
      </g>
    </g>
    <g transform="translate(88,88)" fill="#000000">
      <g transform="scale(11)">
        <circle cx="3" cy="3" r="3"></circle>
      </g>
    </g>
    <g transform="translate(836,88)" fill="#000000">
      <g transform="scale(11)">
        <circle cx="3" cy="3" r="3"></circle>
      </g>
    </g>
    <g transform="translate(88,836)" fill="#000000">
      <g transform="scale(11)">
        <circle cx="3" cy="3" r="3"></circle>
      </g>
    </g>
  </g>
</svg>
